<svg xmlns="http://www.w3.org/2000/svg" viewBox="0 0 24 24" fill="white" width="24" height="24">
  <path d="M12 0.297C5.372 0.297 0 5.67 0 12.297c0 5.292 3.438 9.776 8.207 11.387.6.113.793-.258.793-.577 0-.285-.011-1.04-.017-2.042-3.338.726-4.042-1.61-4.042-1.61-.546-1.387-1.333-1.756-1.333-1.756-1.09-.745.083-.729.083-.729 1.205.085 1.838 1.236 1.838 1.236 1.07 1.834 2.809 1.304 3.494.997.108-.776.418-1.305.76-1.605-2.665-.305-5.466-1.333-5.466-5.931 0-1.31.469-2.381 1.236-3.221-.124-.304-.535-1.527.116-3.181 0 0 1.008-.322 3.3 1.23a11.49 11.49 0 0 1 3.003-.404c1.018.004 2.045.138 3.003.404 2.291-1.553 3.297-1.23 3.297-1.23.653 1.654.242 2.877.118 3.181.77.84 1.235 1.911 1.235 3.221 0 4.609-2.804 5.624-5.475 5.921.43.371.823 1.102.823 2.222 0 1.606-.015 2.902-.015 3.293 0 .321.192.694.8.576C20.565 22.07 24 17.588 24 12.297 24 5.67 18.627.297 12 .297z"/>
</svg>
